# xmcd CD database file
#
# Track frame offsets:
#	150
#	19839
#	35613
#	57350
#	78967
#	97180
#	116332
#	136027
#	153081
#	170105
#	184269
#	201140
#
# Disc length: 2925 seconds
#
# Revision: 3
# Processed by: cddbd v1.5PL3 Copyright (c) Steve Scherf et al.
# Submitted via: CDex 1.51
#
DISCID=9b0b6b0c
DTITLE=Toni Braxton - The Heat
DYEAR=2000
DGENRE=R&B
TTITLE0=He Wasn't Man Enough
TTITLE1=Heat, The
TTITLE2=Spanish Guitar
TTITLE3=Just Be A Man About It - featuring Dr. Dre
TTITLE4=Gimme Some
TTITLE5=I'm Still Breathing
TTITLE6=Fairy Tale
TTITLE7=Art of Love, The
TTITLE8=Speaking In Tongues
TTITLE9=Maybe
TTITLE10=You've Been Wrong
TTITLE11=Never Just for a Ring
EXTD=YEAR: 2000
EXTT0=
EXTT1=
EXTT2=
EXTT3=
EXTT4=
EXTT5=
EXTT6=
EXTT7=
EXTT8=
EXTT9=
EXTT10=
EXTT11=
PLAYORDER=
